# xmcd
#
# Track frame offsets:
#	150
#	16951
#	30542
#	44216
#	59843
#	75048
#	86060
#	101258
#	117614
#	131495
#	148843
#	166947
#	186655
#	198130
#
# Disc length: 3050
#
# Revision: 2
# Processed by: cddbd v1.5.1PL0 Copyright (c) Steve Scherf et al.
# Submitted via: dBpowerAMP V4.0
# Normalized: r0:TRMNUM;r1:TDELIM( - ),TSWAP
#
DISCID=c30be80e
DTITLE=Lind - The No.1 Line Dance Album Vol 2
DYEAR=1900
DGENRE=
TTITLE0=Lee Greenwood - I Still Believe
TTITLE1=Mark Chestnutt - Postpone The Pain
TTITLE2=George Jones - Billy Be Bad
TTITLE3=Geroge Strait - I Just Want To Dance With You
TTITLE4=Collin Raye - Open Arms
TTITLE5=Roger Miller - King Of The Road
TTITLE6=Billy Ray Cyrus - Missing You
TTITLE7=Rick Tippe - texas Is Where It's At
TTITLE8=Patty Loveless - I'm That Kind Of Girl
TTITLE9=Reba McIntire - Till You Love Me
TTITLE10=Keith Harding - Papa Bear's Song
TTITLE11=Mavericks - Dance The Night Away
TTITLE12=Billy Ray Cyrus - Rock The Planet
TTITLE13=Jimmy Ray - Are You Jimmy Ray?
EXTD=Line Dancing
EXTT0=
EXTT1=
EXTT2=
EXTT3=
EXTT4=
EXTT5=
EXTT6=
EXTT7=
EXTT8=
EXTT9=
EXTT10=
EXTT11=
EXTT12=
EXTT13=
PLAYORDER=
